<?xml version="1.0" encoding="UTF-8" standalone="no"?>
<!-- Created with Inkscape (http://www.inkscape.org/) -->
<svg
   xmlns:dc="http://purl.org/dc/elements/1.1/"
   xmlns:cc="http://web.resource.org/cc/"
   xmlns:rdf="http://www.w3.org/1999/02/22-rdf-syntax-ns#"
   xmlns:svg="http://www.w3.org/2000/svg"
   xmlns="http://www.w3.org/2000/svg"
   xmlns:sodipodi="http://sodipodi.sourceforge.net/DTD/sodipodi-0.dtd"
   xmlns:inkscape="http://www.inkscape.org/namespaces/inkscape"
   width="182.26176"
   height="34.803768"
   id="svg3173"
   sodipodi:version="0.32"
   inkscape:version="0.45.1"
   version="1.0"
   sodipodi:docbase="/home/andrew/Programs/lastgraph3/static/images"
   sodipodi:docname="aera_footer.svg"
   inkscape:output_extension="org.inkscape.output.svg.inkscape"
   inkscape:export-filename="/home/andrew/Programs/lastgraph3/static/images/aera_footer.png"
   inkscape:export-xdpi="64.68718"
   inkscape:export-ydpi="64.68718">
  <defs
     id="defs3175" />
  <sodipodi:namedview
     id="base"
     pagecolor="#ffffff"
     bordercolor="#666666"
     borderopacity="1.0"
     gridtolerance="10000"
     guidetolerance="10"
     objecttolerance="10"
     inkscape:pageopacity="0.0"
     inkscape:pageshadow="2"
     inkscape:zoom="6.4961513"
     inkscape:cx="86.788681"
     inkscape:cy="17.401884"
     inkscape:document-units="px"
     inkscape:current-layer="layer1"
     inkscape:window-width="1274"
     inkscape:window-height="743"
     inkscape:window-x="1280"
     inkscape:window-y="30" />
  <metadata
     id="metadata3178">
    <rdf:RDF>
      <cc:Work
         rdf:about="">
        <dc:format>image/svg+xml</dc:format>
        <dc:type
           rdf:resource="http://purl.org/dc/dcmitype/StillImage" />
      </cc:Work>
    </rdf:RDF>
  </metadata>
  <g
     inkscape:label="Layer 1"
     inkscape:groupmode="layer"
     id="layer1"
     transform="translate(93.988025,-172.10316)">
    <path
       inkscape:export-ydpi="105.14407"
       inkscape:export-xdpi="105.14407"
       inkscape:export-filename="/home/andrew/Documents/Aeracode/2007Nov/logo_header.png"
       sodipodi:type="arc"
       style="color:#000000;fill:#babdb6;fill-opacity:0.25683061;fill-rule:nonzero;stroke:none;stroke-width:5.09141254;stroke-linecap:butt;stroke-linejoin:miter;marker:none;marker-start:none;marker-mid:none;marker-end:none;stroke-miterlimit:4;stroke-dasharray:none;stroke-dashoffset:2.24000003;stroke-opacity:1;visibility:visible;display:inline;overflow:visible"
       id="path1901"
       sodipodi:cx="139.4834"
       sodipodi:cy="478.22879"
       sodipodi:rx="21.033211"
       sodipodi:ry="21.033211"
       d="M 160.51661 478.22879 A 21.033211 21.033211 0 1 1  118.45019,478.22879 A 21.033211 21.033211 0 1 1  160.51661 478.22879 z"
       transform="matrix(0.2361612,0,0,0.2361612,-109.50197,76.565462)" />
    <path
       inkscape:export-ydpi="105.14407"
       inkscape:export-xdpi="105.14407"
       inkscape:export-filename="/home/andrew/Documents/Aeracode/2007Nov/logo_header.png"
       style="color:#000000;fill:#babdb6;fill-opacity:0.74316945;fill-rule:nonzero;stroke:none;stroke-width:4.9013195;stroke-linecap:butt;stroke-linejoin:miter;marker:none;stroke-miterlimit:4;stroke-dashoffset:2.24000003;stroke-opacity:1;visibility:visible;display:inline;overflow:visible"
       d="M -77.013745,172.10849 C -84.961013,172.16201 -92.283746,178.39671 -93.655794,186.21582 C -95.228773,193.76966 -91.079787,201.94633 -84.097111,205.18963 C -77.447185,208.54168 -68.767111,206.84427 -63.822793,201.33744 C -59.990767,197.28265 -58.320255,191.30136 -59.55065,185.83298 C -60.214795,184.19424 -60.552597,185.98812 -60.317741,186.84885 C -59.523763,193.73632 -64.15446,200.71303 -70.740507,202.70518 C -77.331336,204.95132 -85.142094,201.93186 -88.506125,195.83265 C -92.110153,189.835 -90.715188,181.44857 -85.390664,176.95026 C -82.19391,174.07831 -77.763693,172.73046 -73.510046,173.27639 C -71.597642,173.09307 -73.651609,172.15229 -74.553586,172.21906 C -75.369489,172.12378 -76.192519,172.08867 -77.013745,172.10849 z "
       id="path2799" />
    <path
       inkscape:export-ydpi="105.14407"
       inkscape:export-xdpi="105.14407"
       inkscape:export-filename="/home/andrew/Documents/Aeracode/2007Nov/logo_header.png"
       style="color:#000000;fill:#babdb6;fill-opacity:0.50273222;fill-rule:nonzero;stroke:none;stroke-width:4.9013195;stroke-linecap:butt;stroke-linejoin:miter;marker:none;stroke-miterlimit:4;stroke-dashoffset:2.24000003;stroke-opacity:1;visibility:visible;display:inline;overflow:visible"
       d="M -75.7755,199.79936 C -70.684297,199.76507 -65.993331,195.77102 -65.114361,190.76197 C -64.10664,185.92284 -66.764572,180.68472 -71.237736,178.607 C -75.497879,176.45963 -81.058431,177.54701 -84.225862,181.07478 C -86.680697,183.67236 -87.750853,187.50408 -86.96265,191.00721 C -86.53715,192.05702 -86.320791,190.90782 -86.471286,190.35643 C -86.979883,185.94419 -84.013383,181.47479 -79.794202,180.19858 C -75.572043,178.75967 -70.568358,180.69399 -68.413249,184.60125 C -66.104488,188.44345 -66.998164,193.81594 -70.409111,196.69764 C -72.456943,198.53746 -75.295144,199.40092 -78.020022,199.05119 C -79.245094,199.16862 -77.929346,199.77131 -77.351546,199.72853 C -76.828874,199.78956 -76.301601,199.81205 -75.7755,199.79936 z "
       id="path4610" />
    <path
       inkscape:export-ydpi="105.14407"
       inkscape:export-xdpi="105.14407"
       inkscape:export-filename="/home/andrew/Documents/Aeracode/2007Nov/logo_header.png"
       id="text2393"
       d="M -35.526321,199.65235 L -35.526321,187.3306 C -35.526321,183.39347 -36.802279,180.62289 -41.72368,180.62289 C -44.129703,180.62289 -45.369211,180.76872 -46.900326,180.95099 C -47.447088,181.0239 -47.738784,181.20618 -47.738784,181.60718 L -47.738784,181.82591 C -47.738784,182.22691 -47.374186,182.37273 -47.046129,182.37273 C -46.973227,182.37273 -46.936776,182.37273 -46.900326,182.37273 C -45.186957,182.19046 -44.129703,182.04464 -41.72368,182.04464 C -38.18759,182.04464 -37.130336,183.53929 -37.130336,187.3306 L -37.130336,188.64297 L -39.93741,188.64297 C -46.572178,188.64297 -48.941751,190.50218 -48.941751,194.25703 L -48.941751,194.73094 C -48.941751,199.2878 -46.098318,200.60018 -43.364146,200.60018 C -41.103926,200.60018 -38.953147,199.72526 -37.166878,198.74098 L -37.166878,199.65235 C -37.166878,200.05336 -36.83873,200.38146 -36.437771,200.38146 L -36.255427,200.38146 C -35.854468,200.38146 -35.526321,200.05336 -35.526321,199.65235 M -37.130336,197.31924 C -39.572811,198.63162 -41.322721,199.17845 -43.364146,199.17845 C -45.551465,199.17845 -47.337735,198.12125 -47.337735,194.73094 L -47.337735,194.25703 C -47.337735,191.15837 -45.442113,190.06472 -39.93741,190.06472 L -37.130336,190.06472 L -37.130336,197.31924 M -15.829351,190.28345 L -15.829351,189.29916 C -15.829351,184.12257 -18.053121,180.62289 -23.083874,180.62289 C -27.895921,180.62289 -30.447749,184.30485 -30.447749,189.33562 L -30.447749,191.74164 C -30.447749,198.63161 -26.765856,200.60018 -22.245415,200.60018 C -20.604948,200.60018 -18.526981,200.345 -16.777162,199.98046 C -16.2304,199.87109 -16.084507,199.68881 -16.084507,199.28781 L -16.084507,199.03263 C -16.084507,198.66807 -16.339752,198.52225 -16.631359,198.52225 C -16.704261,198.52225 -16.777162,198.55871 -16.850064,198.55871 C -18.636334,198.92326 -20.641399,199.17845 -22.245415,199.17845 C -25.890947,199.17845 -28.843733,197.86607 -28.843733,191.74164 L -28.843733,190.97609 L -16.522007,190.97609 C -16.157408,190.97609 -15.829351,190.68445 -15.829351,190.28345 M -17.433367,189.51789 L -28.843733,189.51789 L -28.843733,189.33562 C -28.843733,184.99749 -27.130364,182.04464 -23.083874,182.04464 C -18.964481,182.04464 -17.433367,184.70585 -17.433367,189.29916 L -17.433367,189.51789 M -3.0792376,181.46136 L -3.0792376,181.16972 C -3.0792376,180.73226 -3.4802867,180.62289 -4.0635898,180.62289 C -5.8498598,180.62289 -7.2716218,181.09681 -9.1307934,182.29982 L -9.1307934,181.53427 C -9.1307934,181.13327 -9.385949,180.80518 -9.7869981,180.80518 L -10.078605,180.80518 C -10.479654,180.80518 -10.734809,181.13327 -10.734809,181.53427 L -10.734809,199.68881 C -10.734809,200.05336 -10.406752,200.38146 -10.042154,200.38146 L -9.8234489,200.38146 C -9.4588506,200.38146 -9.1307934,200.05336 -9.1307934,199.68881 L -9.1307934,183.72156 C -6.9799251,182.37273 -5.4488107,182.04464 -4.0635898,182.04464 C -3.4802867,182.04464 -3.0792376,181.93528 -3.0792376,181.46136 M 13.712738,199.65235 L 13.712738,187.3306 C 13.712738,183.39347 12.436815,180.62289 7.515406,180.62289 C 5.1093821,180.62289 3.8698742,180.76872 2.3387598,180.95099 C 1.7919977,181.0239 1.5003011,181.20618 1.5003011,181.60718 L 1.5003011,181.82591 C 1.5003011,182.22691 1.8648993,182.37273 2.1929566,182.37273 C 2.2658582,182.37273 2.3023993,182.37273 2.3387598,182.37273 C 4.0522184,182.19046 5.1093821,182.04464 7.515406,182.04464 C 11.051495,182.04464 12.108722,183.53929 12.108722,187.3306 L 12.108722,188.64297 L 9.301676,188.64297 C 2.6669073,188.64297 0.29733419,190.50218 0.29733419,194.25703 L 0.29733419,194.73094 C 0.29733419,199.2878 3.140858,200.60018 5.8749393,200.60018 C 8.13516,200.60018 10.285938,199.72526 12.072271,198.74098 L 12.072271,199.65235 C 12.072271,200.05336 12.400365,200.38146 12.801369,200.38146 L 12.983641,200.38146 C 13.384645,200.38146 13.712738,200.05336 13.712738,199.65235 M 12.108722,197.31924 C 9.6662743,198.63162 7.9163649,199.17845 5.8749393,199.17845 C 3.6876202,199.17845 1.9013502,198.12125 1.9013502,194.73094 L 1.9013502,194.25703 C 1.9013502,191.15837 3.7969726,190.06472 9.301676,190.06472 L 12.108722,190.06472 L 12.108722,197.31924 M 31.11309,199.6159 L 31.11309,199.36072 C 31.11309,198.99617 30.857907,198.85035 30.529814,198.85035 C 30.456903,198.85035 30.420444,198.85035 30.347533,198.85035 C 28.634156,199.06908 27.212412,199.17845 26.0094,199.17845 C 21.853548,199.17845 20.395344,196.18914 20.395344,191.7781 L 20.395344,189.33562 C 20.395344,184.92458 21.853548,182.04464 26.0094,182.04464 C 27.212412,182.04464 28.634156,182.154 30.347533,182.37273 C 30.420444,182.37273 30.456903,182.37273 30.529814,182.37273 C 30.857907,182.37273 31.11309,182.22691 31.11309,181.86237 L 31.11309,181.60718 C 31.11309,181.20618 30.967269,181.0239 30.420444,180.95099 C 28.889338,180.76872 27.175961,180.62289 26.0094,180.62289 C 20.796357,180.62289 18.791328,184.48712 18.791328,189.33562 L 18.791328,191.7781 C 18.791328,196.55368 20.796357,200.60018 26.0094,200.60018 C 27.175961,200.60018 28.889338,200.45436 30.420444,200.27209 C 30.967269,200.19918 31.11309,200.01691 31.11309,199.6159 M 50.271255,191.88747 L 50.271255,189.33562 C 50.271255,183.83093 47.75587,180.62289 42.76155,180.62289 C 37.76723,180.62289 35.251836,183.83093 35.251836,189.33562 L 35.251836,191.88747 C 35.251836,197.39215 37.76723,200.60018 42.76155,200.60018 C 47.75587,200.60018 50.271255,197.39215 50.271255,191.88747 M 48.667239,191.88747 C 48.667239,196.37141 47.026773,199.17845 42.76155,199.17845 C 38.496327,199.17845 36.855852,196.37141 36.855852,191.88747 L 36.855852,189.33562 C 36.855852,184.85167 38.496327,182.04464 42.76155,182.04464 C 47.026773,182.04464 48.667239,184.85167 48.667239,189.33562 L 48.667239,191.88747 M 68.590384,199.2149 L 68.590384,173.98811 C 68.590384,173.62355 68.335202,173.29546 67.970658,173.29546 L 67.606104,173.29546 C 67.24156,173.29546 66.986368,173.62355 66.986368,173.98811 L 66.986368,181.16972 C 65.528174,180.84163 63.340882,180.62289 61.919138,180.62289 C 57.18001,180.62289 54.773977,183.57575 54.773977,189.33562 L 54.773977,191.74164 C 54.773977,196.99115 56.888367,200.60018 61.919138,200.60018 C 63.997068,200.60018 66.439552,200.23564 68.043568,199.90755 C 68.481023,199.79817 68.590384,199.65235 68.590384,199.2149 M 66.986368,198.70453 C 65.673995,198.92326 63.668975,199.17845 61.919138,199.17845 C 57.836196,199.17845 56.377993,196.44432 56.377993,191.74164 L 56.377993,189.33562 C 56.377993,184.52357 57.909107,182.04464 61.919138,182.04464 C 63.340882,182.04464 65.601084,182.22691 66.986368,182.51855 L 66.986368,198.70453 M 88.273739,190.28345 L 88.273739,189.29916 C 88.273739,184.12257 86.049978,180.62289 81.019207,180.62289 C 76.207169,180.62289 73.655314,184.30485 73.655314,189.33562 L 73.655314,191.74164 C 73.655314,198.63161 77.33727,200.60018 81.857675,200.60018 C 83.498142,200.60018 85.576073,200.345 87.32591,199.98046 C 87.872735,199.87109 88.018547,199.68881 88.018547,199.28781 L 88.018547,199.03263 C 88.018547,198.66807 87.763365,198.52225 87.471731,198.52225 C 87.39882,198.52225 87.32591,198.55871 87.252999,198.55871 C 85.466711,198.92326 83.461682,199.17845 81.857675,199.17845 C 78.212188,199.17845 75.25933,197.86607 75.25933,191.74164 L 75.25933,190.97609 L 87.581092,190.97609 C 87.945646,190.97609 88.273739,190.68445 88.273739,190.28345 M 86.669723,189.51789 L 75.25933,189.51789 L 75.25933,189.33562 C 75.25933,184.99749 76.972717,182.04464 81.019207,182.04464 C 85.138609,182.04464 86.669723,184.70585 86.669723,189.29916 L 86.669723,189.51789"
       style="font-size:40.40454483px;font-style:normal;font-variant:normal;font-weight:300;font-stretch:normal;text-align:start;line-height:125%;writing-mode:lr-tb;text-anchor:start;fill:#babdb6;fill-opacity:1;stroke:none;stroke-width:1.15034354px;stroke-linecap:butt;stroke-linejoin:miter;stroke-opacity:1;font-family:NeoSans" />
  </g>
</svg>
