<?xml version="1.0" encoding="UTF-8" standalone="no"?>
<!-- Created with Inkscape (http://www.inkscape.org/) -->
<svg
   xmlns:dc="http://purl.org/dc/elements/1.1/"
   xmlns:cc="http://creativecommons.org/ns#"
   xmlns:rdf="http://www.w3.org/1999/02/22-rdf-syntax-ns#"
   xmlns:svg="http://www.w3.org/2000/svg"
   xmlns="http://www.w3.org/2000/svg"
   xmlns:xlink="http://www.w3.org/1999/xlink"
   xmlns:sodipodi="http://sodipodi.sourceforge.net/DTD/sodipodi-0.dtd"
   xmlns:inkscape="http://www.inkscape.org/namespaces/inkscape"
   width="32"
   height="32"
   id="svg249"
   sodipodi:version="0.32"
   inkscape:version="0.46"
   sodipodi:docbase="/home/andrew/Programs/lastgraph3/static/images"
   sodipodi:docname="poster.svg"
   inkscape:export-filename="/home/andrew/Programs/lastgraph3/static/images/posters_64.png"
   inkscape:export-xdpi="180"
   inkscape:export-ydpi="180"
   version="1.0"
   inkscape:output_extension="org.inkscape.output.svg.inkscape">
  <defs
     id="defs3">
    <inkscape:perspective
       sodipodi:type="inkscape:persp3d"
       inkscape:vp_x="0 : 16 : 1"
       inkscape:vp_y="0 : 1000 : 0"
       inkscape:vp_z="32 : 16 : 1"
       inkscape:persp3d-origin="16 : 10.666667 : 1"
       id="perspective53" />
    <radialGradient
       inkscape:collect="always"
       xlink:href="#linearGradient5060"
       id="radialGradient5031"
       gradientUnits="userSpaceOnUse"
       gradientTransform="matrix(-2.774389,0,0,1.969706,112.7623,-872.8854)"
       cx="605.71429"
       cy="486.64789"
       fx="605.71429"
       fy="486.64789"
       r="117.14286" />
    <linearGradient
       inkscape:collect="always"
       id="linearGradient5060">
      <stop
         style="stop-color:black;stop-opacity:1;"
         offset="0"
         id="stop5062" />
      <stop
         style="stop-color:black;stop-opacity:0;"
         offset="1"
         id="stop5064" />
    </linearGradient>
    <radialGradient
       inkscape:collect="always"
       xlink:href="#linearGradient5060"
       id="radialGradient5029"
       gradientUnits="userSpaceOnUse"
       gradientTransform="matrix(2.774389,0,0,1.969706,-1891.633,-872.8854)"
       cx="605.71429"
       cy="486.64789"
       fx="605.71429"
       fy="486.64789"
       r="117.14286" />
    <linearGradient
       id="linearGradient5048">
      <stop
         style="stop-color:black;stop-opacity:0;"
         offset="0"
         id="stop5050" />
      <stop
         id="stop5056"
         offset="0.5"
         style="stop-color:black;stop-opacity:1;" />
      <stop
         style="stop-color:black;stop-opacity:0;"
         offset="1"
         id="stop5052" />
    </linearGradient>
    <linearGradient
       inkscape:collect="always"
       xlink:href="#linearGradient5048"
       id="linearGradient5027"
       gradientUnits="userSpaceOnUse"
       gradientTransform="matrix(2.774389,0,0,1.969706,-1892.179,-872.8854)"
       x1="302.85715"
       y1="366.64789"
       x2="302.85715"
       y2="609.50507" />
    <linearGradient
       id="linearGradient15662">
      <stop
         style="stop-color:#ffffff;stop-opacity:1.0000000;"
         offset="0.0000000"
         id="stop15664" />
      <stop
         style="stop-color:#f8f8f8;stop-opacity:1.0000000;"
         offset="1.0000000"
         id="stop15666" />
    </linearGradient>
    <radialGradient
       gradientUnits="userSpaceOnUse"
       fy="64.567902"
       fx="20.892099"
       r="5.257"
       cy="64.567902"
       cx="20.892099"
       id="aigrd3">
      <stop
         id="stop15573"
         style="stop-color:#F0F0F0"
         offset="0" />
      <stop
         id="stop15575"
         style="stop-color:#9a9a9a;stop-opacity:1.0000000;"
         offset="1.0000000" />
    </radialGradient>
    <radialGradient
       gradientUnits="userSpaceOnUse"
       fy="114.5684"
       fx="20.892099"
       r="5.256"
       cy="114.5684"
       cx="20.892099"
       id="aigrd2">
      <stop
         id="stop15566"
         style="stop-color:#F0F0F0"
         offset="0" />
      <stop
         id="stop15568"
         style="stop-color:#9a9a9a;stop-opacity:1.0000000;"
         offset="1.0000000" />
    </radialGradient>
    <linearGradient
       id="linearGradient269">
      <stop
         style="stop-color:#a3a3a3;stop-opacity:1.0000000;"
         offset="0.0000000"
         id="stop270" />
      <stop
         style="stop-color:#4c4c4c;stop-opacity:1.0000000;"
         offset="1.0000000"
         id="stop271" />
    </linearGradient>
    <linearGradient
       id="linearGradient259">
      <stop
         style="stop-color:#fafafa;stop-opacity:1.0000000;"
         offset="0.0000000"
         id="stop260" />
      <stop
         style="stop-color:#bbbbbb;stop-opacity:1.0000000;"
         offset="1.0000000"
         id="stop261" />
    </linearGradient>
    <linearGradient
       id="linearGradient12512">
      <stop
         style="stop-color:#ffffff;stop-opacity:1.0000000;"
         offset="0.0000000"
         id="stop12513" />
      <stop
         style="stop-color:#fff520;stop-opacity:0.89108908;"
         offset="0.50000000"
         id="stop12517" />
      <stop
         style="stop-color:#fff300;stop-opacity:0.0000000;"
         offset="1.0000000"
         id="stop12514" />
    </linearGradient>
    <radialGradient
       inkscape:collect="always"
       xlink:href="#linearGradient15662"
       id="radialGradient2875"
       gradientUnits="userSpaceOnUse"
       gradientTransform="matrix(0.7334761,0,0,0.6385869,-1.1403755,2.6742514)"
       cx="8.1435566"
       cy="7.2678967"
       fx="8.1435566"
       fy="7.2678967"
       r="38.158695" />
    <radialGradient
       inkscape:collect="always"
       xlink:href="#linearGradient259"
       id="radialGradient2878"
       gradientUnits="userSpaceOnUse"
       gradientTransform="matrix(0.79426,0,0,0.5876294,-3.8590049,2.5010426)"
       cx="33.966679"
       cy="35.736916"
       fx="33.966679"
       fy="35.736916"
       r="86.70845" />
    <radialGradient
       inkscape:collect="always"
       xlink:href="#linearGradient269"
       id="radialGradient2880"
       gradientUnits="userSpaceOnUse"
       gradientTransform="matrix(0.8006937,0,0,0.5829084,-1.0858524,2.8659067)"
       cx="8.824419"
       cy="3.7561285"
       fx="8.824419"
       fy="3.7561285"
       r="37.751713" />
  </defs>
  <sodipodi:namedview
     id="base"
     pagecolor="#ffffff"
     bordercolor="#666"
     borderopacity="1"
     inkscape:pageopacity="0.0"
     inkscape:pageshadow="2"
     inkscape:zoom="1"
     inkscape:cx="16"
     inkscape:cy="16"
     inkscape:current-layer="layer4"
     showgrid="false"
     inkscape:grid-bbox="true"
     inkscape:document-units="px"
     inkscape:window-width="1274"
     inkscape:window-height="743"
     inkscape:window-x="1280"
     inkscape:window-y="30"
     inkscape:showpageshadow="false"
     width="32px"
     height="32px" />
  <metadata
     id="metadata4">
    <rdf:RDF>
      <cc:Work
         rdf:about="">
        <dc:format>image/svg+xml</dc:format>
        <dc:type
           rdf:resource="http://purl.org/dc/dcmitype/StillImage" />
        <dc:title>New Document</dc:title>
        <dc:creator>
          <cc:Agent>
            <dc:title>Jakub Steiner</dc:title>
          </cc:Agent>
        </dc:creator>
        <dc:source>http://jimmac.musichall.cz</dc:source>
        <cc:license
           rdf:resource="http://creativecommons.org/licenses/by-sa/2.0/" />
      </cc:Work>
      <cc:License
         rdf:about="http://creativecommons.org/licenses/by-sa/2.0/">
        <cc:permits
           rdf:resource="http://web.resource.org/cc/Reproduction" />
        <cc:permits
           rdf:resource="http://web.resource.org/cc/Distribution" />
        <cc:requires
           rdf:resource="http://web.resource.org/cc/Notice" />
        <cc:requires
           rdf:resource="http://web.resource.org/cc/Attribution" />
        <cc:permits
           rdf:resource="http://web.resource.org/cc/DerivativeWorks" />
        <cc:requires
           rdf:resource="http://web.resource.org/cc/ShareAlike" />
      </cc:License>
    </rdf:RDF>
  </metadata>
  <g
     inkscape:label="Shadow"
     id="layer6"
     inkscape:groupmode="layer" />
  <g
     id="layer1"
     inkscape:label="Base"
     inkscape:groupmode="layer"
     style="display:inline" />
  <g
     inkscape:groupmode="layer"
     id="layer4"
     inkscape:label="new"
     style="display:inline">
    <g
       style="display:inline"
       id="g5022"
       transform="matrix(1.5924354e-2,0,0,9.904958e-3,30.330361,27.037327)">
      <rect
         y="-150.69685"
         x="-1559.2523"
         height="478.35718"
         width="1339.6335"
         id="rect4173"
         style="opacity:0.40206185;color:#000000;fill:url(#linearGradient5027);fill-opacity:1;fill-rule:nonzero;stroke:none;stroke-width:1;stroke-linecap:round;stroke-linejoin:miter;marker:none;marker-start:none;marker-mid:none;marker-end:none;stroke-miterlimit:4;stroke-dasharray:none;stroke-dashoffset:0;stroke-opacity:1;visibility:visible;display:inline;overflow:visible" />
      <path
         sodipodi:nodetypes="cccc"
         id="path5058"
         d="M -219.61876,-150.68038 C -219.61876,-150.68038 -219.61876,327.65041 -219.61876,327.65041 C -76.744594,328.55086 125.78146,220.48075 125.78138,88.454235 C 125.78138,-43.572302 -33.655436,-150.68036 -219.61876,-150.68038 z "
         style="opacity:0.40206185;color:#000000;fill:url(#radialGradient5029);fill-opacity:1;fill-rule:nonzero;stroke:none;stroke-width:1;stroke-linecap:round;stroke-linejoin:miter;marker:none;marker-start:none;marker-mid:none;marker-end:none;stroke-miterlimit:4;stroke-dasharray:none;stroke-dashoffset:0;stroke-opacity:1;visibility:visible;display:inline;overflow:visible" />
      <path
         style="opacity:0.40206185;color:#000000;fill:url(#radialGradient5031);fill-opacity:1;fill-rule:nonzero;stroke:none;stroke-width:1;stroke-linecap:round;stroke-linejoin:miter;marker:none;marker-start:none;marker-mid:none;marker-end:none;stroke-miterlimit:4;stroke-dasharray:none;stroke-dashoffset:0;stroke-opacity:1;visibility:visible;display:inline;overflow:visible"
         d="M -1559.2523,-150.68038 C -1559.2523,-150.68038 -1559.2523,327.65041 -1559.2523,327.65041 C -1702.1265,328.55086 -1904.6525,220.48075 -1904.6525,88.454235 C -1904.6525,-43.572302 -1745.2157,-150.68036 -1559.2523,-150.68038 z "
         id="path5018"
         sodipodi:nodetypes="cccc" />
    </g>
    <rect
       ry="1.1831721"
       y="4.5000005"
       x="1.4833714"
       height="23.096121"
       width="29.016628"
       id="rect15391"
       style="color:#000000;fill:url(#radialGradient2878);fill-opacity:1;fill-rule:nonzero;stroke:url(#radialGradient2880);stroke-width:0.5;stroke-linecap:round;stroke-linejoin:round;marker:none;marker-start:none;marker-mid:none;marker-end:none;stroke-miterlimit:4;stroke-dashoffset:0;stroke-opacity:1;visibility:visible;display:block;overflow:visible;stroke-dasharray:none"
       rx="1.7343146" />
    <rect
       rx="0.94407457"
       ry="0.56711429"
       y="5.0471549"
       x="1.9411153"
       height="21.981852"
       width="28.101141"
       id="rect15660"
       style="fill:none;fill-opacity:1;fill-rule:nonzero;stroke:url(#radialGradient2875);stroke-width:0.52203554;stroke-linecap:round;stroke-linejoin:round;marker:none;marker-start:none;marker-mid:none;marker-end:none;stroke-miterlimit:4;stroke-dasharray:none;stroke-dashoffset:0;stroke-opacity:1;visibility:visible;display:block;overflow:visible" />
    <path
       style="fill:#204a87;fill-opacity:1;fill-rule:evenodd;stroke:none;stroke-width:1px;stroke-linecap:butt;stroke-linejoin:miter;stroke-opacity:1"
       d="M 1.7176758,17.088022 C 1.7176758,17.088022 1.7176758,14.890741 1.7176758,14.890741 C 1.7176758,14.890741 4.1451629,7.8401785 6.1711291,7.5251801 C 8.3498902,7.1864251 10.234241,13.236072 12.704079,13.292535 C 15.108932,13.348997 19.490874,12.69346 21.493202,12.69346 C 23.560514,12.69346 30.282324,14.890741 30.282324,14.890741 L 30.282324,17.088022 C 30.282324,17.088022 23.566606,15.924397 21.493202,15.989381 C 19.420814,16.054334 14.765299,14.565819 12.626911,14.630804 C 10.423537,14.695788 8.1795493,14.83185 6.1122371,14.890741 C 4.0420568,14.949715 1.7176758,17.088022 1.7176758,17.088022 z"
       id="path2209"
       sodipodi:nodetypes="cczzzcczzzc" />
    <path
       style="fill:#729fcf;fill-opacity:1;fill-rule:evenodd;stroke:none;stroke-width:1px;stroke-linecap:butt;stroke-linejoin:miter;stroke-opacity:1;display:inline"
       d="M 1.7176758,17.088022 C 1.7176758,17.088022 1.7176758,18.204939 1.7176758,18.204939 C 1.7176758,18.204939 4.0567605,18.261422 6.1061448,18.247585 C 8.1549373,18.233751 10.169257,17.070145 12.639094,17.126607 C 15.043948,17.183069 19.425889,19.321856 21.428217,19.321856 C 23.49553,19.321856 30.282324,18.334907 30.282324,18.334907 L 30.282324,17.088022 C 30.282324,17.088022 23.566606,15.924397 21.493202,15.989381 C 19.420814,16.054334 14.765299,14.565819 12.626911,14.630804 C 10.423537,14.695788 8.1795493,14.83185 6.1122371,14.890741 C 4.0420568,14.949715 1.7176758,17.088022 1.7176758,17.088022 z"
       id="path3182"
       sodipodi:nodetypes="cczzzcczzzc" />
    <path
       style="fill:#3465a4;fill-opacity:1;fill-rule:evenodd;stroke:none;stroke-width:1px;stroke-linecap:butt;stroke-linejoin:miter;stroke-opacity:1;display:inline"
       d="M 1.9126287,19.232503 C 1.9126287,19.232503 1.7176758,18.204939 1.7176758,18.204939 C 1.7176758,18.204939 4.0567605,18.261422 6.1061448,18.247585 C 8.1549373,18.233751 10.169257,17.070145 12.639094,17.126607 C 15.043948,17.183069 19.425889,19.321856 21.428217,19.321856 C 23.49553,19.321856 30.282324,18.334907 30.282324,18.334907 L 30.259332,19.278486 C 30.259332,19.278486 23.696574,21.772981 21.493202,21.707998 C 19.354812,21.643013 14.830283,20.284435 12.691895,20.34942 C 10.488521,20.414405 8.2445335,24.644474 6.1772214,24.703366 C 4.1748935,24.762257 1.9126287,19.232503 1.9126287,19.232503 z"
       id="path3184"
       sodipodi:nodetypes="cczzzcczzzc" />
    <path
       sodipodi:type="inkscape:offset"
       inkscape:radius="-0.60484254"
       inkscape:original="M 7.0625 8.28125 C 5.2184332 8.5679666 3 15 3 15 C 3 15 3 17 3 17 C 3 17 5.1156887 15.053679 7 15 C 8.8817006 14.946396 10.931954 14.80915 12.9375 14.75 C 14.883895 14.69085 19.11368 16.059121 21 16 C 22.887246 15.94085 29 17 29 17 L 29 15 C 29 15 22.881701 13 21 13 C 19.177449 13 15.188936 13.582643 13 13.53125 C 10.751914 13.479857 9.045643 7.9729097 7.0625 8.28125 z "
       style="opacity:0.15555558;fill:#ffffff;fill-opacity:0.26775955;fill-rule:evenodd;stroke:#ffffff;stroke-width:0.40000001;stroke-linecap:butt;stroke-linejoin:miter;stroke-miterlimit:4;stroke-dasharray:none;stroke-opacity:1;display:inline"
       id="path4157"
       d="M 7.15625,8.875 C 7.0162775,8.896763 6.5553205,9.2200863 6.125,9.8125 C 5.6946795,10.404914 5.2583739,11.197306 4.875,12 C 4.1237535,13.572932 3.6152882,15.062912 3.59375,15.125 C 3.59375,15.201904 3.59375,15.468826 3.59375,15.78125 C 3.7702918,15.650783 3.7502915,15.640967 3.96875,15.5 C 4.7786706,14.977376 5.8250395,14.438831 6.96875,14.40625 C 8.8335765,14.353127 10.885288,14.215855 12.90625,14.15625 C 14.034278,14.12197 15.588071,14.453882 17.125,14.78125 C 18.661929,15.108618 20.185767,15.43079 20.96875,15.40625 C 22.045792,15.372493 24.007895,15.616255 25.78125,15.875 C 27.185316,16.079863 27.944631,16.202923 28.40625,16.28125 L 28.40625,15.4375 C 28.092914,15.336122 27.064924,15.028271 25.53125,14.59375 C 23.780024,14.097592 21.726561,13.59375 21,13.59375 C 20.153178,13.59375 18.688901,13.7355 17.1875,13.875 C 15.686099,14.0145 14.156707,14.152158 13,14.125 C 12.192981,14.106551 11.526479,13.632986 10.96875,13.0625 C 10.411021,12.492014 9.9153029,11.797404 9.4375,11.125 C 8.9596971,10.452596 8.5099649,9.8222455 8.09375,9.40625 C 7.6775351,8.9902545 7.3689483,8.8419295 7.15625,8.875 z"
       transform="matrix(1.0986403,0,0,1.0986403,-1.5782451,-1.5888638)" />
    <path
       sodipodi:type="inkscape:offset"
       inkscape:radius="-0.71039218"
       inkscape:original="M 12.9375 14.75 C 10.931954 14.80915 8.8817006 14.946396 7 15 C 5.1156887 15.053679 3 17 3 17 C 3 17 3 18.03125 3 18.03125 C 3 18.03125 5.1346176 18.075095 7 18.0625 C 8.8648435 18.049909 10.689414 16.979857 12.9375 17.03125 C 15.126436 17.082642 19.114949 19.03125 20.9375 19.03125 C 22.819202 19.03125 29 18.125 29 18.125 L 29 17 C 29 17 22.887246 15.94085 21 16 C 19.11368 16.059121 14.883895 14.69085 12.9375 14.75 z "
       style="opacity:0.26222223;fill:#ffffff;fill-opacity:0.2896175;fill-rule:evenodd;stroke:#ffffff;stroke-width:0.40000001;stroke-linecap:butt;stroke-linejoin:miter;stroke-miterlimit:4;stroke-dasharray:none;stroke-opacity:1;display:inline"
       id="path7068"
       d="M 12.96875,15.46875 C 10.981311,15.527366 8.9327694,15.664581 7.03125,15.71875 C 6.3258221,15.738846 5.3985685,16.166163 4.6875,16.625 C 4.1432104,16.976218 3.9136647,17.170337 3.75,17.3125 C 4.3301435,17.322939 5.4963724,17.353902 7,17.34375 C 8.5962405,17.332973 10.486637,16.255757 12.96875,16.3125 C 14.263721,16.342903 15.811591,16.880652 17.3125,17.375 C 18.813409,17.869348 20.2794,18.3125 20.9375,18.3125 C 21.764307,18.3125 23.82111,18.100573 25.59375,17.875 C 26.881054,17.711187 27.458892,17.639964 28,17.5625 C 27.472896,17.473677 26.880106,17.375188 25.59375,17.1875 C 23.840532,16.931693 21.818171,16.694086 21.03125,16.71875 C 19.899961,16.754207 18.379823,16.389685 16.84375,16.0625 C 15.307677,15.735315 13.760098,15.444701 12.96875,15.46875 z"
       transform="matrix(1.0986403,0,0,1.0986403,-1.5782451,-1.5888638)" />
    <path
       sodipodi:type="inkscape:offset"
       inkscape:radius="-0.69728994"
       inkscape:original="M 12.9375 17.03125 C 10.689414 16.979857 8.8648435 18.049909 7 18.0625 C 5.1346176 18.075095 3 18.03125 3 18.03125 C 3 18.03125 3.1875 18.9375 3.1875 18.9375 C 3.1875 18.9375 5.2399491 23.991104 7.0625 23.9375 C 8.9442006 23.883896 10.994454 20.027901 13 19.96875 C 14.946395 19.9096 19.053604 21.159601 21 21.21875 C 23.005545 21.277899 28.968749 19.000001 28.96875 19 L 29 18.125 C 29 18.125 22.819202 19.03125 20.9375 19.03125 C 19.114949 19.03125 15.126436 17.082642 12.9375 17.03125 z "
       style="opacity:0.22666668;fill:#ffffff;fill-opacity:0.27322406;fill-rule:evenodd;stroke:#ffffff;stroke-width:0.40000001;stroke-linecap:butt;stroke-linejoin:miter;stroke-miterlimit:4;stroke-dasharray:none;stroke-opacity:1;display:inline"
       id="path9012"
       d="M 12.90625,17.71875 C 10.887875,17.672608 9.1284925,18.735629 7,18.75 C 5.5313034,18.759917 4.5164642,18.730044 3.875,18.71875 C 3.8765317,18.726153 3.875,18.78125 3.875,18.78125 C 3.9097827,18.865873 4.3484832,19.935703 5.03125,21.09375 C 5.3855602,21.694699 5.8018511,22.28679 6.1875,22.6875 C 6.5731489,23.08821 6.901282,23.253823 7.03125,23.25 C 7.2674189,23.243272 7.6602791,23.078513 8.09375,22.75 C 8.5272209,22.421487 8.9995374,21.959 9.5,21.46875 C 10.500925,20.488251 11.526673,19.323782 12.96875,19.28125 C 14.105895,19.246693 15.638583,19.561619 17.15625,19.875 C 18.673917,20.188381 20.192231,20.505753 21.03125,20.53125 C 21.750017,20.552448 23.810072,20.024274 25.53125,19.46875 C 25.933741,19.338843 25.921274,19.34225 26.28125,19.21875 C 26.015175,19.253878 26.033201,19.245212 25.75,19.28125 C 23.961959,19.508783 21.990292,19.71875 20.9375,19.71875 C 19.777718,19.71875 18.340012,19.211568 16.84375,18.71875 C 15.347488,18.225932 13.803913,17.739825 12.90625,17.71875 z"
       transform="matrix(1.0986403,0,0,1.0986403,-1.5782451,-1.5888638)" />
  </g>
</svg>
