<?xml version="1.0" encoding="UTF-8" standalone="no"?>
<!-- Created with Inkscape (http://www.inkscape.org/) -->
<svg
   xmlns:dc="http://purl.org/dc/elements/1.1/"
   xmlns:cc="http://web.resource.org/cc/"
   xmlns:rdf="http://www.w3.org/1999/02/22-rdf-syntax-ns#"
   xmlns:svg="http://www.w3.org/2000/svg"
   xmlns="http://www.w3.org/2000/svg"
   xmlns:xlink="http://www.w3.org/1999/xlink"
   xmlns:sodipodi="http://sodipodi.sourceforge.net/DTD/sodipodi-0.dtd"
   xmlns:inkscape="http://www.inkscape.org/namespaces/inkscape"
   width="800"
   height="600"
   id="svg2"
   sodipodi:version="0.32"
   inkscape:version="0.45.1"
   version="1.0"
   sodipodi:docbase="/home/andrew/Programs/lastgraph3/static/images"
   sodipodi:docname="splash.svg"
   inkscape:output_extension="org.inkscape.output.svg.inkscape"
   inkscape:export-filename="/home/andrew/Programs/lastgraph3/static/images/splash.png"
   inkscape:export-xdpi="112.5"
   inkscape:export-ydpi="112.5">
  <defs
     id="defs4">
    <linearGradient
       id="linearGradient5110">
      <stop
         style="stop-color:#ffffff;stop-opacity:1;"
         offset="0"
         id="stop5112" />
      <stop
         style="stop-color:#dadada;stop-opacity:1"
         offset="1"
         id="stop5114" />
    </linearGradient>
    <linearGradient
       id="linearGradient5206">
      <stop
         style="stop-color:#263e81;stop-opacity:1;"
         offset="0"
         id="stop5208" />
      <stop
         style="stop-color:#243a7d;stop-opacity:1;"
         offset="1"
         id="stop5210" />
    </linearGradient>
    <linearGradient
       id="linearGradient3144">
      <stop
         style="stop-color:#3462a5;stop-opacity:1;"
         offset="0"
         id="stop3146" />
      <stop
         style="stop-color:#1e2a6e;stop-opacity:1;"
         offset="1"
         id="stop3148" />
    </linearGradient>
    <radialGradient
       inkscape:collect="always"
       xlink:href="#linearGradient3144"
       id="radialGradient3152"
       cx="400.36969"
       cy="300"
       fx="400.36969"
       fy="300"
       r="404.80591"
       gradientTransform="matrix(0.9881279,0,0,0.7410959,4.3835616,77.671227)"
       gradientUnits="userSpaceOnUse" />
    <linearGradient
       inkscape:collect="always"
       xlink:href="#linearGradient5110"
       id="linearGradient5116"
       x1="560.47296"
       y1="41.870857"
       x2="560.47296"
       y2="52.734077"
       gradientUnits="userSpaceOnUse"
       gradientTransform="translate(371.19769,462.25138)" />
  </defs>
  <sodipodi:namedview
     id="base"
     pagecolor="#ffffff"
     bordercolor="#666666"
     borderopacity="1.0"
     gridtolerance="10000"
     guidetolerance="10"
     objecttolerance="10"
     inkscape:pageopacity="0.0"
     inkscape:pageshadow="2"
     inkscape:zoom="1.046518"
     inkscape:cx="400"
     inkscape:cy="345.82613"
     inkscape:document-units="px"
     inkscape:current-layer="layer1"
     width="800px"
     height="600px"
     inkscape:window-width="1274"
     inkscape:window-height="743"
     inkscape:window-x="1280"
     inkscape:window-y="30"
     showguides="true"
     inkscape:guide-bbox="true"
     showgrid="true" />
  <metadata
     id="metadata7">
    <rdf:RDF>
      <cc:Work
         rdf:about="">
        <dc:format>image/svg+xml</dc:format>
        <dc:type
           rdf:resource="http://purl.org/dc/dcmitype/StillImage" />
      </cc:Work>
    </rdf:RDF>
  </metadata>
  <g
     inkscape:label="Layer 1"
     inkscape:groupmode="layer"
     id="layer1">
    <rect
       style="opacity:1;fill:url(#radialGradient3152);fill-opacity:1;stroke:none;stroke-width:2;stroke-miterlimit:4;stroke-dasharray:none;stroke-dashoffset:0;stroke-opacity:1"
       id="rect2160"
       width="800"
       height="600"
       x="0"
       y="-6.0799456e-14" />
    <g
       id="g2183"
       transform="matrix(0.4819049,0,0,0.4819049,11.709337,-65.530616)">
      <text
         sodipodi:linespacing="125%"
         id="text3154"
         y="78.54332"
         x="10.459607"
         style="font-size:84.58346558px;font-style:normal;font-variant:normal;font-weight:normal;font-stretch:normal;text-align:start;line-height:125%;writing-mode:lr-tb;text-anchor:start;fill:#ffffff;fill-opacity:1;stroke:none;stroke-width:1px;stroke-linecap:butt;stroke-linejoin:miter;stroke-opacity:1;font-family:NeoSans"
         xml:space="preserve"><tspan
           y="78.54332"
           x="10.459607"
           id="tspan3156"
           sodipodi:role="line">last</tspan></text>
      <text
         sodipodi:linespacing="125%"
         id="text3158"
         y="78.54332"
         x="152.97353"
         style="font-size:84.58346558px;font-style:normal;font-variant:normal;font-weight:300;font-stretch:normal;text-align:start;line-height:125%;writing-mode:lr-tb;text-anchor:start;fill:#ffffff;fill-opacity:1;stroke:none;stroke-width:1px;stroke-linecap:butt;stroke-linejoin:miter;stroke-opacity:1;font-family:NeoSans"
         xml:space="preserve"><tspan
           y="78.54332"
           x="152.97353"
           id="tspan3160"
           sodipodi:role="line">graph</tspan></text>
    </g>
    <rect
       style="fill:#ffffff;fill-opacity:1;stroke:none;stroke-width:2;stroke-linecap:butt;stroke-linejoin:miter;stroke-miterlimit:4;stroke-dasharray:none;stroke-dashoffset:0;stroke-opacity:1"
       id="rect4153"
       width="266.9028"
       height="24.594593"
       x="-2.338959"
       y="70.914238" />
    <g
       id="g2230">
      <path
         id="path3164"
         d="M 264.34213,70.914235 L 264.34213,95.508829 L 276.63942,83.211532 L 264.34213,70.914235 z "
         style="fill:#ffffff;fill-opacity:1;fill-rule:evenodd;stroke:none;stroke-width:1px;stroke-linecap:butt;stroke-linejoin:miter;stroke-opacity:1" />
      <path
         id="path4155"
         d="M 272.63309,83.211532 L 265.889,76.467431 L 265.889,89.955634 L 272.63309,83.211532 z "
         style="fill:#4e9a06;fill-opacity:1;fill-rule:evenodd;stroke:none;stroke-width:1px;stroke-linecap:butt;stroke-linejoin:miter;stroke-opacity:1" />
    </g>
    <g
       id="g2182"
       transform="translate(-215.95424,-3.8221989)">
      <text
         sodipodi:linespacing="125%"
         id="text2267"
         y="51.156429"
         x="228.65807"
         style="font-size:40.76118469px;font-style:normal;font-variant:normal;font-weight:normal;font-stretch:normal;text-align:start;line-height:125%;writing-mode:lr-tb;text-anchor:start;fill:#ffffff;fill-opacity:1;stroke:none;stroke-width:1px;stroke-linecap:butt;stroke-linejoin:miter;stroke-opacity:1;font-family:NeoSans"
         xml:space="preserve"><tspan
           y="51.156429"
           x="228.65807"
           id="tspan2269"
           sodipodi:role="line">last</tspan></text>
      <text
         sodipodi:linespacing="125%"
         id="text2271"
         y="51.156429"
         x="297.33621"
         style="font-size:40.76118469px;font-style:normal;font-variant:normal;font-weight:300;font-stretch:normal;text-align:start;line-height:125%;writing-mode:lr-tb;text-anchor:start;fill:#ffffff;fill-opacity:1;stroke:none;stroke-width:1px;stroke-linecap:butt;stroke-linejoin:miter;stroke-opacity:1;font-family:NeoSans"
         xml:space="preserve"><tspan
           y="51.156429"
           x="297.33621"
           id="tspan2273"
           sodipodi:role="line">graph</tspan></text>
      <text
         sodipodi:linespacing="125%"
         id="text2279"
         y="61.112091"
         x="392.73318"
         style="font-size:19.64632034px;font-style:normal;font-variant:normal;font-weight:bold;font-stretch:normal;text-align:start;line-height:125%;writing-mode:lr-tb;text-anchor:start;fill:#ffffff;fill-opacity:1;stroke:none;stroke-width:1px;stroke-linecap:butt;stroke-linejoin:miter;stroke-opacity:1;font-family:NeoSans"
         xml:space="preserve"><tspan
           y="61.112091"
           x="392.73318"
           id="tspan2281"
           sodipodi:role="line">3</tspan></text>
    </g>
    <path
       id="text2236"
       style="font-size:40.76118469px;font-style:normal;font-variant:normal;font-weight:normal;font-stretch:normal;text-align:start;line-height:125%;writing-mode:lr-tb;text-anchor:start;fill:#ffffff;fill-opacity:1;stroke:none;stroke-width:1px;stroke-linecap:butt;stroke-linejoin:miter;stroke-opacity:1;font-family:NeoSans"
       d="M 355.2009,54.437508 C 355.2009,54.649806 355.13455,54.835567 355.00187,54.99479 C 354.86918,55.154013 354.69669,55.233625 354.4844,55.233625 L 352.33488,55.233625 C 352.14912,55.233625 351.97662,55.154013 351.81741,54.99479 C 351.68472,54.835567 351.61837,54.649806 351.61838,54.437508 L 351.61838,25.339436 C 351.61837,24.835259 351.85721,24.583155 352.33488,24.583125 L 354.4844,24.583125 C 354.69669,24.583155 354.86918,24.662767 355.00187,24.82196 C 355.13455,24.954676 355.2009,25.127168 355.2009,25.339436 L 355.2009,54.437508 M 376.77567,54.437508 C 376.77565,54.649806 376.69604,54.835567 376.53683,54.99479 C 376.37759,55.154013 376.17856,55.233625 375.93975,55.233625 L 374.06887,55.233625 C 373.85656,55.233625 373.6708,55.154013 373.51159,54.99479 C 373.35235,54.835567 373.27274,54.649806 373.27275,54.437508 L 373.27275,53.521974 C 371.04362,54.848835 368.94718,55.512266 366.98343,55.512266 C 365.01967,55.512266 363.41417,55.008059 362.16692,53.999644 C 360.94621,52.964694 360.33585,51.266313 360.33586,48.904496 L 360.33586,48.426825 C 360.33585,46.17117 361.09216,44.512595 362.60479,43.451095 C 364.11741,42.363081 366.63844,41.819069 370.1679,41.819055 L 373.19314,41.819055 L 373.19314,40.187016 C 373.19313,38.48865 372.86141,37.294476 372.198,36.60449 C 371.53455,35.914541 370.40672,35.569557 368.8145,35.569538 C 367.08957,35.569557 365.0064,35.688975 362.56498,35.92779 L 362.36595,35.92779 C 361.88828,35.92781 361.64945,35.702243 361.64945,35.251091 L 361.64945,33.818081 C 361.64945,33.393507 361.92809,33.141403 362.48537,33.06177 C 364.55527,32.716808 366.66498,32.544316 368.8145,32.544294 C 374.12193,32.544316 376.77565,35.091888 376.77567,40.187016 L 376.77567,54.437508 M 373.19314,50.934594 L 373.19314,44.406435 L 370.1679,44.406435 C 367.753,44.406446 366.1077,44.698355 365.23197,45.282164 C 364.35624,45.865992 363.91838,46.900943 363.91838,48.38702 L 363.91838,48.86469 C 363.91838,50.271168 364.22355,51.239776 364.83392,51.770516 C 365.44427,52.301264 366.38634,52.566636 367.66013,52.566633 C 369.38504,52.566636 371.22938,52.022623 373.19314,50.934594 M 396.51937,49.621001 C 396.51935,51.611297 395.84265,53.09738 394.48927,54.079255 C 393.13586,55.034596 391.26498,55.512266 388.87665,55.512266 C 386.27599,55.512266 384.13975,55.313236 382.4679,54.915178 C 381.88408,54.782492 381.59217,54.503852 381.59218,54.079255 L 381.59218,52.646245 C 381.59217,52.24819 381.84428,52.049161 382.34849,52.049157 L 382.50771,52.049157 C 384.89606,52.34107 387.01903,52.487024 388.87665,52.487022 C 390.25657,52.487024 391.27825,52.274727 391.9417,51.850128 C 392.60511,51.425536 392.93683,50.682495 392.93684,49.621001 C 392.93683,49.010651 392.71126,48.479907 392.26014,48.028767 C 391.83553,47.551105 391.03942,46.954018 389.87179,46.237504 L 385.77179,43.769542 C 382.98538,42.097709 381.59217,40.160494 381.59218,37.957888 C 381.59217,35.967615 382.24234,34.574412 383.54266,33.778275 C 384.84298,32.955643 386.66078,32.544316 388.99606,32.544294 C 391.14557,32.544316 393.25528,32.716808 395.32519,33.06177 C 395.85592,33.141403 396.12129,33.406775 396.12131,33.857886 L 396.12131,35.211285 C 396.12129,35.688975 395.88246,35.92781 395.4048,35.92779 L 395.28539,35.92779 C 392.41935,35.688975 390.32291,35.569557 388.99606,35.569538 C 387.69573,35.569557 386.72712,35.728781 386.09024,36.047208 C 385.47987,36.365673 385.1747,37.002566 385.1747,37.957888 C 385.1747,38.541724 385.38699,39.0592 385.8116,39.510316 C 386.26272,39.934927 386.9925,40.452403 388.00092,41.062744 L 392.02131,43.451095 C 393.6666,44.432983 394.82097,45.401591 395.48442,46.356922 C 396.17437,47.285733 396.51935,48.373758 396.51937,49.621001 M 413.27763,54.636537 C 413.27762,55.008059 413.02551,55.233625 412.52132,55.313237 C 411.64558,55.445922 410.76985,55.512266 409.89413,55.512266 C 407.87729,55.512266 406.44429,55.140745 405.5951,54.397702 C 404.7459,53.654661 404.32131,52.208384 404.32131,50.058865 L 404.32131,35.848179 L 400.38054,35.370509 C 399.87633,35.317454 399.62422,35.078619 399.62423,34.654003 L 399.62423,33.53944 C 399.62422,33.061792 399.87633,32.822957 400.38054,32.822934 L 404.32131,32.822934 L 404.32131,28.802544 C 404.32131,28.351438 404.57341,28.086066 405.07763,28.006427 L 407.18734,27.687981 L 407.30675,27.687981 C 407.7048,27.688008 407.90383,27.913574 407.90384,28.36468 L 407.90384,32.822934 L 412.32229,32.822934 C 412.53457,32.822957 412.72033,32.902568 412.87957,33.06177 C 413.06532,33.221015 413.1582,33.406775 413.15821,33.619051 L 413.15821,35.012256 C 413.1582,35.224574 413.06532,35.423603 412.87957,35.609344 C 412.72033,35.768586 412.53457,35.848198 412.32229,35.848179 L 407.90384,35.848179 L 407.90384,50.058865 C 407.90383,51.120358 408.04979,51.810326 408.34171,52.128769 C 408.66014,52.447219 409.25723,52.606442 410.13297,52.606439 L 412.4019,52.606439 C 412.98571,52.606442 413.27762,52.805471 413.27763,53.203527 L 413.27763,54.636537 M 437.04426,34.445421 L 437.04426,33.997048 C 437.04426,33.589436 436.67741,33.344869 436.2698,33.344869 L 427.95451,33.344869 C 420.98436,33.344869 419.55771,37.013378 419.55771,40.151987 L 419.55771,40.478076 C 419.55771,42.638417 420.33217,44.228106 421.67729,45.328657 C 420.49522,45.858552 419.96532,46.959105 419.96532,47.937373 C 419.96532,49.160207 420.6175,50.22 422.12567,50.668372 L 422.41099,50.749895 C 421.06588,51.565117 419.3539,53.766225 419.3539,56.619505 L 419.3539,56.986356 C 419.3539,60.69562 421.71806,63.304339 427.99528,63.304339 C 434.43554,63.304339 436.63665,60.654859 436.63665,56.986356 L 436.63665,56.619505 C 436.63665,53.317852 434.4763,52.258057 430.11486,51.116745 L 422.77784,49.20097 C 421.84034,48.956403 421.59577,48.467268 421.59577,47.937373 C 421.59577,47.12215 422.12567,46.551492 422.98165,46.184642 C 424.48981,46.796059 425.83494,47.122149 427.95451,47.122149 C 434.35401,47.122149 436.39208,44.350385 436.39208,40.478076 L 436.39208,40.151987 C 436.39208,37.176423 434.96544,35.749778 434.15021,35.0976 L 436.2698,35.0976 C 436.67741,35.0976 437.04426,34.893793 437.04426,34.445421 M 434.63935,40.478076 C 434.63935,43.290595 433.33499,45.573224 427.95451,45.573224 C 422.37024,45.573224 421.3512,42.516133 421.3512,40.478076 L 421.3512,40.151987 C 421.3512,37.543273 422.32948,34.893794 427.95451,34.893794 C 433.25346,34.893794 434.63935,37.217184 434.63935,40.151987 L 434.63935,40.478076 M 434.84315,56.986356 C 434.84315,60.00268 433.41651,61.796176 427.99528,61.796176 C 422.77785,61.796176 421.10664,59.921158 421.10664,56.986356 L 421.10664,56.619505 C 421.10664,53.888509 422.28871,52.380341 424.0822,51.198268 L 429.70725,52.66567 C 433.98717,53.766221 434.84315,54.336881 434.84315,56.619505 L 434.84315,56.986356 M 450.25916,34.07857 L 450.25916,33.752481 C 450.25916,33.263347 449.81079,33.141063 449.15861,33.141063 C 447.16131,33.141063 445.57162,33.67096 443.49281,35.016077 L 443.49281,34.160092 C 443.49281,33.71172 443.20748,33.344869 442.7591,33.344869 L 442.43302,33.344869 C 441.98464,33.344869 441.69931,33.71172 441.69931,34.160092 L 441.69931,54.459162 C 441.69931,54.866774 442.06617,55.233625 442.47378,55.233625 L 442.71834,55.233625 C 443.12596,55.233625 443.49281,54.866774 443.49281,54.459162 L 443.49281,36.605763 C 445.89771,35.097601 447.60969,34.730749 449.15861,34.730749 C 449.81079,34.730749 450.25916,34.608465 450.25916,34.07857 M 468.46285,54.418401 L 468.46285,40.641121 C 468.46285,36.238917 467.03621,33.141063 461.53345,33.141063 C 458.84322,33.141063 457.45733,33.304108 455.74536,33.507913 C 455.13395,33.589436 454.80786,33.793242 454.80786,34.241615 L 454.80786,34.486182 C 454.80786,34.934554 455.21547,35.0976 455.58232,35.0976 C 455.66384,35.0976 455.7046,35.0976 455.74536,35.0976 C 457.66114,34.893794 458.84322,34.730749 461.53345,34.730749 C 465.48728,34.730749 466.66936,36.401962 466.66936,40.641121 L 466.66936,42.108523 L 463.53075,42.108523 C 456.11222,42.108523 453.46274,44.187348 453.46274,48.385746 L 453.46274,48.915641 C 453.46274,54.010784 456.64211,55.478192 459.6992,55.478192 C 462.22639,55.478192 464.6313,54.499922 466.6286,53.399372 L 466.6286,54.418401 C 466.6286,54.866774 466.99545,55.233625 467.44382,55.233625 L 467.64763,55.233625 C 468.096,55.233625 468.46285,54.866774 468.46285,54.418401 M 466.66936,51.809685 C 463.93836,53.277087 461.98182,53.888506 459.6992,53.888506 C 457.25353,53.888506 455.25623,52.706428 455.25623,48.915641 L 455.25623,48.385746 C 455.25623,44.921049 457.37582,43.69821 463.53075,43.69821 L 466.66936,43.69821 L 466.66936,51.809685 M 489.62937,45.736269 L 489.62937,43.046031 C 489.62937,37.176426 487.26522,33.141063 481.64018,33.141063 C 479.31679,33.141063 476.58579,33.548675 474.7923,33.915525 C 474.30317,34.037809 474.18088,34.200854 474.18088,34.689988 L 474.18088,62.407593 C 474.18088,62.815205 474.46621,63.182056 474.87382,63.182056 L 475.28144,63.182056 C 475.68905,63.182056 475.97438,62.815205 475.97438,62.407593 L 475.97438,54.866774 C 477.60482,55.233625 480.0505,55.478192 481.64018,55.478192 C 486.93913,55.478192 489.62937,52.17653 489.62937,45.736269 M 487.83588,45.736269 C 487.83588,51.11674 486.12391,53.888506 481.64018,53.888506 C 480.0505,53.888506 477.5233,53.6847 475.97438,53.35861 L 475.97438,35.260644 C 477.44178,35.016078 479.68365,34.730749 481.64018,34.730749 C 486.20543,34.730749 487.83588,37.787843 487.83588,43.046031 L 487.83588,45.736269 M 509.80234,54.459162 L 509.80234,40.96721 C 509.80234,36.401962 507.68275,33.141063 502.01695,33.141063 C 500.22346,33.141063 498.10388,33.467153 496.51419,33.874764 L 496.51419,25.722527 C 496.51419,25.314916 496.22886,24.948065 495.82125,24.948065 L 495.41364,24.948065 C 495.00603,24.948065 494.7207,25.314916 494.7207,25.722527 L 494.7207,54.459162 C 494.7207,54.866774 495.00603,55.233625 495.41364,55.233625 L 495.82125,55.233625 C 496.22886,55.233625 496.51419,54.866774 496.51419,54.459162 L 496.51419,35.46445 C 498.06312,35.016078 500.26422,34.730749 502.01695,34.730749 C 506.3784,34.730749 508.04961,36.972618 508.04961,40.96721 L 508.04961,54.459162 C 508.04961,54.866774 508.29418,55.233625 508.70179,55.233625 L 509.1094,55.233625 C 509.55777,55.233625 509.80234,54.866774 509.80234,54.459162 M 521.64468,60.058989 L 521.64468,59.761545 C 521.64468,58.687447 521.08284,57.762067 520.17399,57.282853 C 521.04979,56.787115 521.64468,55.713014 521.64468,54.754587 L 521.64468,54.523243 C 521.64468,52.044553 520.02527,51.135696 517.33175,51.135696 C 516.04284,51.135696 514.82001,51.383565 513.96073,51.647959 C 513.79549,51.697533 513.63024,51.796681 513.63024,51.961927 L 513.63024,53.283896 C 513.63024,53.465667 513.76243,53.58134 513.92769,53.58134 C 513.9442,53.58134 513.9442,53.58134 513.96073,53.58134 C 515.2166,53.465667 516.05936,53.383044 517.21608,53.383044 C 518.505,53.383044 518.85202,53.878783 518.85202,54.62239 L 518.85202,54.853735 C 518.85202,55.580817 518.52152,56.291376 517.44742,56.291376 L 514.6052,56.291376 C 514.42342,56.291376 514.29123,56.423574 514.29123,56.605344 L 514.29123,58.009936 C 514.29123,58.191707 514.42342,58.340429 514.6052,58.340429 L 517.51353,58.340429 C 518.58763,58.340429 518.85202,59.017939 518.85202,59.761545 L 518.85202,60.058989 C 518.85202,60.967842 518.38933,61.463581 517.21608,61.463581 C 516.32375,61.463581 515.08441,61.414007 513.92769,61.314859 C 513.91116,61.314859 513.91116,61.314859 513.89463,61.314859 C 513.72939,61.314859 513.59719,61.430532 513.59719,61.612303 L 513.59719,62.934272 C 513.59719,63.099518 513.74591,63.198666 513.91116,63.24824 C 514.77044,63.512634 516.04284,63.710929 517.33175,63.710929 C 519.89307,63.710929 521.64468,62.587252 521.64468,60.058989"
       inkscape:export-filename="/home/andrew/Programs/lastgraph3/static/images/logo_med.png"
       inkscape:export-xdpi="112.5"
       inkscape:export-ydpi="112.5" />
    <path
       style="opacity:1;fill:url(#linearGradient5116);fill-opacity:1;stroke:none;stroke-width:2;stroke-linecap:butt;stroke-linejoin:miter;stroke-miterlimit:4;stroke-dasharray:none;stroke-dashoffset:0;stroke-opacity:1"
       d="M 846.1977,447.37638 L 846.1977,502.12638 L 859.0102,514.93888 L 1613.082,514.93888 L 1613.082,447.37638 L 846.1977,447.37638 z "
       id="rect3167"
       sodipodi:nodetypes="cccccc"
       inkscape:export-filename="/home/andrew/Programs/lastgraph3/static/images/menubg.png"
       inkscape:export-xdpi="79.920784"
       inkscape:export-ydpi="79.920784" />
    <path
       sodipodi:type="arc"
       style="opacity:1;fill:none;fill-opacity:1;stroke:#555753;stroke-width:2;stroke-linecap:butt;stroke-linejoin:miter;stroke-miterlimit:4;stroke-dasharray:none;stroke-dashoffset:0;stroke-opacity:1"
       id="path5118"
       sodipodi:cx="963.51349"
       sodipodi:cy="335.13513"
       sodipodi:rx="44.594593"
       sodipodi:ry="44.594593"
       d="M 1008.1081 335.13513 A 44.594593 44.594593 0 1 1  918.9189,335.13513 A 44.594593 44.594593 0 1 1  1008.1081 335.13513 z" />
    <path
       sodipodi:type="arc"
       style="opacity:1;fill:none;fill-opacity:1;stroke:#555753;stroke-width:7.08768797;stroke-linecap:butt;stroke-linejoin:miter;stroke-miterlimit:4;stroke-dasharray:none;stroke-dashoffset:0;stroke-opacity:1"
       id="path6089"
       sodipodi:cx="963.51349"
       sodipodi:cy="335.13513"
       sodipodi:rx="44.594593"
       sodipodi:ry="44.594593"
       d="M 1008.1081 335.13513 A 44.594593 44.594593 0 1 1  918.9189,335.13513 A 44.594593 44.594593 0 1 1  1008.1081 335.13513 z"
       transform="matrix(0.2821795,0,0,0.2821795,691.62978,240.56688)" />
    <path
       style="fill:#ffffff;fill-opacity:1;stroke:none;stroke-width:2;stroke-linecap:butt;stroke-linejoin:miter;stroke-miterlimit:4;stroke-dasharray:none;stroke-dashoffset:0;stroke-opacity:1"
       d="M 800,-60 L 800,-35.40625 L 533.09375,-35.40625 L 545.40625,-47.6875 L 533.09375,-60 L 800,-60 z "
       id="rect6091"
       inkscape:export-filename="/home/andrew/Programs/lastgraph3/static/images/loadingbg.png"
       inkscape:export-xdpi="109.92624"
       inkscape:export-ydpi="109.92624" />
    <path
       style="fill:#ffffff;fill-opacity:1;fill-rule:evenodd;stroke:none;stroke-width:1px;stroke-linecap:butt;stroke-linejoin:miter;stroke-opacity:1"
       d="M 312.70271,-33.001795 L 312.70271,-8.4072014 L 325,-20.704498 L 312.70271,-33.001795 z "
       id="path6104"
       inkscape:export-filename="/home/andrew/Programs/lastgraph3/static/images/cap_left.png"
       inkscape:export-xdpi="109.78017"
       inkscape:export-ydpi="109.78017" />
  </g>
</svg>
